<svg xmlns="http://www.w3.org/2000/svg" width="128" height="128" viewBox="-27.516 -35.912 128 128" xml:space="preserve"><g fill="#FE0844"><path d="M34.381 58.412c-2.403 1.017-4.294 1.37-6.612 1.61a21.34 21.34 0 0 1-4.943-.09C3.756 57.235-7.912 41.645-5.291 22.444c.866-6.327 3.728-11.985 7.891-16.475L-8.698-12.832C-20.347-2.691-28.305 12.62-27.454 31.186c1.646 35.85 40.614 61.217 73.674 46.694-2.304-3.916-4.56-7.842-6.837-11.726-2.084-3.575-5.002-7.742-5.002-7.742zM84.808 25.753c-3.284.161-4.557-.546-4.896-4.28-2.737-29.925-32.383-51.902-61.995-47.074-2.81.459-5.6 1.188-8.347 2.135L21.273-3.992a33.238 33.238 0 0 1 5.6-.442c15.234.116 29.547 12.485 31.341 27.003.274 2.204.006 3.292-2.667 3.184-5.48-.208-10.963-.063-17.098-.063 10.599 16.876 20.712 32.981 31.053 49.459 10.473-16.71 20.527-32.771 30.981-49.456-5.791-.001-10.738-.177-15.675.06z"/></g></svg>